PLOT

A tale of corporate mergers, Japanese porn, and the Internet, in which a company hires an executive to infiltrate a rival company and sabotage it from within.
Diane works for a French firm bidding to purchase a Japanese animation outfit. Diane maliciously hatches a plot to take the job of her supervisor Karen. The plan succeeds, but then Diane faces problems when a competing American firm, represented by Elaine, becomes involved. Diane's assistant Elise remains loyal to Karen, and she frustrates Diane's every move. When it comes to light that the one of the concerned parties controls an Internet site which broadcasts actual torture, the plot thickens.

CAST

Connie Nielsen, Charles Berling, Chloë Sevigny, Gina Gershon, Jean-Baptiste Malartre, Dominique Reymond, Edwin Gerard, Thomas M. Pollard, Abi Sakamoto, Jean-Pierre Gos, Julie Brochen, Jean-Charles Dumay, Mathias Mlekuz, Ludovic Schoendoerffer, Randal Holden, Alexandre Lachaux, Nao Ohmori, Alexis Pivot, Naoki Yamazaki

Director: Marie-Jeanne Pascal, Olivier Assayas

General

Demonlover 2002 DVDRip Xvid fasamoo LKRG

RIPPER : fasamoo
Format : AVI
Format/Info : Audio Video Interleave
File size : 759 MiB
Duration : 1h 56mn
Overall bit rate : 912 Kbps
Writing application : VirtualDubMod 1.5.4.1 (build
2178/release)
Writing library : VirtualDub build 32817/release
Language : French | English | Japanese
Subtitles : English(*.srt)
Genre : Thriller | Drama | Mystery


Video
ID : 0
Format : MPEG-4 Visual
Format profile : Advanced Simple@L5
Format settings, BVOP : Yes
Format settings, QPel : No
Format settings, GMC : No warppoints
Format settings, Matrix : Custom
Codec ID : XVID
Codec ID/Hint : XviD
Duration : 1h 56mn
Bit rate : 772 Kbps
Width : 512 pixels
Height : 272 pixels
Display aspect ratio : 1.882
Frame rate : 29.970 fps
Color space : YUV
Chroma subsampling : 4:2:0
Bit depth : 8 bits
Scan type : Progressive
Bits/(Pixel*Frame) : 0.185
Stream size : 643 MiB (85%)
Writing library : XviD 1.2.1 (UTC 2008-12-04)

Audio
ID : 1
Format : MPEG Audio
Format version : Version 1
Format profile : Layer 3
Mode : Joint stereo
Mode extension : MS Stereo
Codec ID : 55
Codec ID/Hint : MP3
Duration : 1h 56mn
Bit rate mode : Constant
Bit rate : 128 Kbps
Channel(s) : 2 channels
Sampling rate : 48.0 KHz
Stream size : 107 MiB (14%)
Alignment : Split accross interleaves
Interleave, duration : 33 ms (1.00 video frame)
Interleave, preload duration : 500 ms
Writing library : LAME3.98.2
 
http://www.imdb.com/title/tt0284034/
 
http://leetleech.org/images/96937394621004252626.png 
http://leetleech.org/images/55356874083957238416.png 
http://leetleech.org/images/19248188598685227308.png 
http://leetleech.org/images/75449390449722001204.png 
http://leetleech.org/images/57797321577199792346.png 
http://leetleech.org/images/28392106912273026705.png 
http://leetleech.org/images/96943725148994251420.png